<svg xmlns="http://www.w3.org/2000/svg" viewBox="0 0 128 128">
  <path style="fill:#f97316;fill-opacity:1;stroke-width:1.02883" d="m 18.937552,93.370855 c 0.121527,-26.896279 0.240017,-53.753846 0.355469,-80.572703 0.0102,-1.77989 1.006546,-3.3022949 2.378905,-3.6349461 v 0 C 29.328172,7.1308874 41.395874,7.6418706 49.58988,11.64844 c 5.770387,2.654859 10.828546,7.347479 14.583325,13.529433 3.875033,-5.886033 8.907794,-10.354702 14.583326,-12.94877 7.738277,-3.7626921 19.477855,-4.6685248 27.890599,-3.0658971 1.43556,0.2479456 2.51071,1.8008211 2.52475,3.6465591 v 0 80.897874 c -0.005,2.063395 -1.32459,3.729106 -2.94402,3.716235 -0.22711,-0.0037 -0.45322,-0.03911 -0.67447,-0.104515 -7.184361,-1.187638 -14.486159,-0.31878 -21.373685,2.543295 -5.088118,2.416486 -9.917298,5.639336 -14.37369,9.592546 6.266515,-2.47774 12.798449,-3.69244 19.359364,-3.60011 8.41908,0.17071 16.797601,1.52607 24.983061,4.04141 V 25.235938 h 2.92577 c 1.61586,0 2.92579,1.669017 2.92579,3.727852 v 85.81028 c 0,2.05883 -1.30993,3.72785 -2.92579,3.72785 -0.31014,-0.004 -0.61788,-0.0699 -0.91145,-0.19743 -8.81731,-3.08925 -17.900477,-4.77824 -27.042953,-5.02853 -8.079423,-0.12984 -16.086453,1.95335 -23.479155,6.10857 -1.012125,0.82063 -2.305581,0.82063 -3.317706,0 -7.392441,-4.15627 -15.399652,-6.2395 -23.479155,-6.10857 -9.121835,0.26455 -18.183261,1.96126 -26.979152,5.05176 -0.293572,0.12752 -0.601305,0.19417 -0.911458,0.19742 -1.6336902,0.0195 -2.9633735,-1.66947 -2.9531226,-3.75107 V 28.96379 c 0,-2.058835 1.3099162,-3.727852 2.9257796,-3.727852 h 2.925779 V 109.8965 c 8.185457,-2.51534 16.563972,-3.8707 24.98306,-4.04141 7.033347,-0.10607 14.030631,1.29545 20.699207,4.14594 -4.212321,-4.34118 -9.0128,-7.66314 -14.164054,-9.80159 -6.380205,-2.671042 -16.114575,-3.565259 -23.233061,-2.787177 -1.624667,0.201468 -3.064508,-1.329944 -3.199217,-3.402681 -0.0092,-0.212744 -0.0092,-0.425983 0,-0.638727 z M 103.30209,16.131154 c -6.763014,-0.812927 -16.460928,0.139358 -22.540352,3.07751 -5.651534,2.524245 -10.496382,7.342702 -13.790358,13.715244 v 69.981422 c 4.736678,-4.136524 9.855036,-7.514293 15.239576,-10.057076 6.805672,-2.77746 13.959135,-3.907914 21.091134,-3.332999 z M 61.119821,102.18531 V 32.819389 C 58.057323,25.932733 53.108107,21.333888 47.511756,18.604775 41.131551,15.504039 31.333379,14.807244 25.126351,15.933728 l -0.328125,73.813797 c 6.772132,-0.313563 16.12369,0.789693 22.348947,3.37945 5.001922,2.066008 9.717245,5.122907 13.972648,9.058335 z" />
  <path style="fill:#f97316;fill-opacity:1" d="m 46.601932,50.571761 c -1.248,3.52 -3.008,6.432 -5.216,8.864 -2.464,-2.528 -4.384,-5.504 -5.76,-8.864 z m 9.184,0 v -3.712 h -13.92 l 2.752,-0.864 c -0.384,-1.312 -1.344,-3.36 -2.176,-4.832 l -4.064,1.184 c 0.736,1.408 1.44,3.2 1.792,4.512 h -13.504 v 3.712 h 5.024 c 1.728,4.512 3.936,8.352 6.816,11.52 -3.328,2.592 -7.456,4.416 -12.448,5.664 0.768,0.864 1.888,2.656 2.304,3.552 5.152,-1.472 9.44,-3.584 12.96,-6.464 3.36,2.816 7.488,4.928 12.512,6.272 0.576,-1.056 1.696,-2.72 2.56,-3.552 -4.768,-1.12 -8.8,-2.976 -12.096,-5.536 2.784,-3.104 4.96,-6.848 6.592,-11.456 z"/>
<path style="fill:#f97316;fill-opacity:1" d="m 85.284133,58.31576 0.704,-2.592 c 0.704,-2.464 1.408,-5.152 2.016,-7.744 h 0.128 c 0.704,2.56 1.344,5.28 2.08,7.744 l 0.704,2.592 z m 8.32,9.76 h 4.96 l -7.616,-23.68 h -5.568 l -7.584,23.68 h 4.8 l 1.664,-6.08 h 7.68 z" />
</svg>
