<?xml version="1.0" encoding="UTF-8" standalone="no"?>
<svg
   id="Layer_1"
   data-name="Layer 1"
   viewBox="0 0 128 128"
   version="1.1"
   sodipodi:docname="open-book-icon.svg"
   width="128"
   height="128"
   inkscape:export-filename="favicon.webp"
   inkscape:export-xdpi="96"
   inkscape:export-ydpi="96"
   inkscape:version="1.2.2 (b0a8486, 2022-12-01)"
   xmlns:inkscape="http://www.inkscape.org/namespaces/inkscape"
   xmlns:sodipodi="http://sodipodi.sourceforge.net/DTD/sodipodi-0.dtd"
   xmlns="http://www.w3.org/2000/svg"
   xmlns:svg="http://www.w3.org/2000/svg"
   xmlns:rdf="http://www.w3.org/1999/02/22-rdf-syntax-ns#"
   xmlns:cc="http://creativecommons.org/ns#"
   xmlns:dc="http://purl.org/dc/elements/1.1/">
  <defs
     id="defs9" />
  <sodipodi:namedview
     id="namedview7"
     pagecolor="#ffffff"
     bordercolor="#000000"
     borderopacity="0.25"
     inkscape:showpageshadow="2"
     inkscape:pageopacity="0.0"
     inkscape:pagecheckerboard="0"
     inkscape:deskcolor="#d1d1d1"
     showgrid="true"
     inkscape:zoom="2.4471173"
     inkscape:cx="-23.905679"
     inkscape:cy="48.424323"
     inkscape:window-width="1920"
     inkscape:window-height="1027"
     inkscape:window-x="0"
     inkscape:window-y="385"
     inkscape:window-maximized="1"
     inkscape:current-layer="Layer_1">
    <inkscape:grid
       type="xygrid"
       id="grid267"
       originx="0"
       originy="0" />
  </sodipodi:namedview>
  <title
     id="title2">open-book</title>
  <path
     d="m 14.560031,89.29082 c 0.133333,-23.16 0.263333,-46.286667 0.39,-69.38 0.01119,-1.532638 1.104326,-2.843559 2.61,-3.13 v 0 c 8.4,-1.75 21.64,-1.31 30.63,2.14 6.330943,2.28606 11.880468,6.326808 16,11.65 4.251467,-5.068378 9.773128,-8.916285 16,-11.15 8.49,-3.24 21.369999,-4.02 30.599999,-2.64 1.57501,0.213502 2.7546,1.550661 2.77,3.14 v 0 69.66 c -0.005,1.776762 -1.45326,3.211079 -3.23,3.2 -0.24917,-0.0035 -0.49725,-0.03367 -0.74,-0.09 -7.88227,-1.022658 -15.893395,-0.274497 -23.449999,2.19 -5.582395,2.080801 -10.880699,4.855943 -15.77,8.26 6.875266,-2.13355 14.041735,-3.179508 21.24,-3.1 9.236939,0.14699 18.429379,1.31407 27.409999,3.48 v -72.9 h 3.21 c 1.77283,0 3.21,1.437166 3.21,3.21 v 73.89 c 0,1.77283 -1.43717,3.21 -3.21,3.21 -0.34028,-0.003 -0.67791,-0.0602 -1,-0.17 -9.67385,-2.66011 -19.63939,-4.11447 -29.669999,-4.33 -8.864285,-0.1118 -17.649146,1.682 -25.76,5.26 -1.110446,0.70664 -2.529554,0.70664 -3.64,0 -8.110568,-3.5789 -16.895627,-5.37274 -25.76,-5.26 -10.007962,0.2278 -19.949646,1.68882 -29.6000004,4.35 -0.3220903,0.10981 -0.6597179,0.1672 -1,0.17 -1.7923934,0.0168 -3.2512467,-1.43756 -3.24,-3.23 v -73.89 c 0,-1.772834 1.437166,-3.21 3.21,-3.21 h 3.2100003 v 72.9 c 8.9806191,-2.16593 18.1730531,-3.33301 27.4100001,-3.48 7.716591,-0.09134 15.393615,1.11549 22.71,3.57 -4.621521,-3.738125 -9.888335,-6.598609 -15.54,-8.44 -7,-2.3 -17.68,-3.07 -25.49,-2.4 -1.782493,0.173484 -3.362205,-1.145193 -3.51,-2.93 -0.01009,-0.183194 -0.01009,-0.366806 0,-0.55 z m 92.559999,-66.51 c -7.419996,-0.7 -18.059999,0.12 -24.729999,2.65 -6.200544,2.173591 -11.516036,6.322696 -15.13,11.81 v 60.26 c 5.196815,-3.561901 10.812388,-6.470446 16.72,-8.66 7.466798,-2.391638 15.315173,-3.365053 23.139999,-2.87 z m -46.279999,74.1 v -59.73 c -3.36,-5.93 -8.79,-9.89 -14.93,-12.24 -7,-2.67 -17.75,-3.27 -24.56,-2.3 l -0.36,63.56 c 7.43,-0.27 17.69,0.68 24.52,2.91 5.487827,1.77901 10.661213,4.411262 15.33,7.8 z"
     id="path4"
     sodipodi:nodetypes="ccssccccscccccccccssscccccccccsscccccccccccccccccccccc"
     style="fill:#808080" />
  <metadata
     id="metadata265">
    <rdf:RDF>
      <cc:Work
         rdf:about="">
        <dc:title>open-book</dc:title>
      </cc:Work>
    </rdf:RDF>
  </metadata>
  <g
     aria-label="文"
     id="text368"
     style="font-weight:bold;font-size:32px;font-family:'Noto Sans CJK TC';-inkscape-font-specification:'Noto Sans CJK TC, Bold';fill:#808080">
    <path
       d="m 46.601932,50.571761 c -1.248,3.52 -3.008,6.432 -5.216,8.864 -2.464,-2.528 -4.384,-5.504 -5.76,-8.864 z m 9.184,0 v -3.712 h -13.92 l 2.752,-0.864 c -0.384,-1.312 -1.344,-3.36 -2.176,-4.832 l -4.064,1.184 c 0.736,1.408 1.44,3.2 1.792,4.512 h -13.504 v 3.712 h 5.024 c 1.728,4.512 3.936,8.352 6.816,11.52 -3.328,2.592 -7.456,4.416 -12.448,5.664 0.768,0.864 1.888,2.656 2.304,3.552 5.152,-1.472 9.44,-3.584 12.96,-6.464 3.36,2.816 7.488,4.928 12.512,6.272 0.576,-1.056 1.696,-2.72 2.56,-3.552 -4.768,-1.12 -8.8,-2.976 -12.096,-5.536 2.784,-3.104 4.96,-6.848 6.592,-11.456 z"
       id="path549" />
  </g>
  <g
     aria-label="A"
     id="text368-1"
     style="font-weight:bold;font-size:32px;font-family:'Noto Sans CJK TC';-inkscape-font-specification:'Noto Sans CJK TC, Bold';fill:#808080">
    <path
       d="m 85.284133,58.31576 0.704,-2.592 c 0.704,-2.464 1.408,-5.152 2.016,-7.744 h 0.128 c 0.704,2.56 1.344,5.28 2.08,7.744 l 0.704,2.592 z m 8.32,9.76 h 4.96 l -7.616,-23.68 h -5.568 l -7.584,23.68 h 4.8 l 1.664,-6.08 h 7.68 z"
       id="path552" />
  </g>
</svg>
