<?xml version="1.0" encoding="UTF-8" standalone="no"?>
<!-- Created with Inkscape (http://www.inkscape.org/) -->

<svg
   width="1024"
   height="1024"
   viewBox="0 0 270.93333 270.93334"
   version="1.1"
   id="svg8"
   xmlns="http://www.w3.org/2000/svg"
   xmlns:svg="http://www.w3.org/2000/svg"
   xmlns:rdf="http://www.w3.org/1999/02/22-rdf-syntax-ns#"
   xmlns:cc="http://creativecommons.org/ns#"
   xmlns:dc="http://purl.org/dc/elements/1.1/">
  <defs
     id="defs2" />
  <metadata
     id="metadata5">
    <rdf:RDF>
      <cc:Work
         rdf:about="">
        <dc:format>image/svg+xml</dc:format>
        <dc:type
           rdf:resource="http://purl.org/dc/dcmitype/StillImage" />
      </cc:Work>
    </rdf:RDF>
  </metadata>
  <rect
     style="fill:#f97316;fill-opacity:1;stroke-width:0.264583"
     id="rect2"
     width="270.93335"
     height="270.93335"
     x="-7.3046876e-06"
     y="-7.3046876e-06" />
  <path
     id="path4"
     style="fill:#ffffff;stroke-width:2.33325"
     d="m 62.235995,8.4666667 c -8.334143,-0.00771 -16.252248,0.9096704 -22.763469,2.6380823 -3.11226,0.754329 -5.371579,4.206893 -5.395019,8.243424 -0.261641,60.821318 -0.530372,121.730447 -0.806153,182.727347 -0.261299,5.38408 3.10391,9.68013 7.255372,9.16533 16.143647,-1.76458 38.219859,0.26352 52.68929,6.32107 11.682244,4.84968 22.569194,12.38339 32.122074,22.22861 -15.12335,-6.46456 -30.992273,-9.64342 -46.942875,-9.40252 -19.093331,0.38711 -38.094631,3.46086 -56.65804,9.16533 V 47.555237 h -6.635254 c -3.664526,0 -6.6352543,3.785143 -6.6352543,8.454264 V 250.6152 c -0.023203,4.72077 2.9922713,8.54677 6.6972653,8.50697 0.703358,-0.008 1.401433,-0.15838 2.067058,-0.44804 19.94786,-7.00885 40.497896,-10.85643 61.184896,-11.45666 18.323176,-0.29694 36.482414,4.42757 53.247394,13.85342 2.2953,1.86104 5.22877,1.86104 7.52409,0 16.76559,-9.42346 34.92446,-14.14807 53.2474,-13.85342 20.7338,0.56769 41.33321,4.39799 61.32959,11.40395 0.66569,0.28967 1.36393,0.44004 2.06705,0.44804 3.66453,0 6.63526,-3.78515 6.63526,-8.45426 V 56.009501 c 0,-4.669121 -2.97073,-8.454264 -6.63526,-8.454264 h -6.63525 V 239.55385 c -18.56349,-5.70446 -37.56479,-8.77811 -56.65804,-9.16533 -14.8792,-0.20934 -29.69276,2.54521 -43.9043,8.16436 10.10639,-8.96536 21.05837,-16.27445 32.5975,-21.75474 15.61989,-6.49044 32.17939,-8.46103 48.47249,-5.76761 0.50172,0.14731 1.01478,0.22768 1.52962,0.23668 3.67258,0.0292 6.6686,-3.74843 6.6766,-8.42791 V 19.374528 c -0.0318,-4.185944 -2.47012,-7.707367 -5.72575,-8.269779 C 213.10532,7.4701682 186.4816,9.5245671 168.93233,18.057813 156.06102,23.940751 144.64745,34.074769 135.85941,47.423462 127.34411,33.403655 115.87287,22.761482 102.78649,16.74058 91.172201,11.061641 76.126233,8.4795117 62.235995,8.4666667 Z M 59.14316,25.339022 c 12.866454,-0.303717 28.078426,1.903817 38.930441,7.177856 11.805529,5.757082 22.581039,14.668201 29.584449,28.526022 v -0.10111 c 5.09898,10.213722 10.9642,9.069246 15.20972,-1.053455 l 0.29372,-0.102039 c 7.45108,-13.849313 17.86335,-20.336948 30.31836,-25.899992 13.78725,-6.663746 35.78084,-8.823038 51.11833,-6.979419 V 193.33187 c -16.17428,-1.30391 -32.39744,1.2598 -47.83171,7.55871 -12.2114,5.76668 -34.5612,22.80791 -34.5612,22.80791 v -0.0771 c -4.86529,4.71537 -8.77044,3.8819 -14.54722,-2.81336 L 127.37104,220.678 C 118.13068,212.43076 107.98603,205.9582 97.247295,201.52258 83.129268,195.6494 61.921309,193.14773 46.56305,193.85845 L 47.306673,26.459367 c 3.519155,-0.638687 7.547669,-1.019106 11.836487,-1.120345 z" />
  <path
     style="font-style:italic;font-size:104.869px;font-family:Zapfino;-inkscape-font-specification:'Zapfino, Italic';fill:#ffffff;stroke-width:0.545876"
     d="m 74.92882,137.15082 -6.75935,-27.1446 v 58.30262 c 0,4.13397 0.07927,5.64697 -0.820536,7.71394 -0.876123,2.067 -3.635735,4.68799 -5.103833,4.68799 -1.420741,0 -2.581013,-1.00889 -3.480814,-3.02666 -0.899803,-2.06699 -1.349704,-5.19208 -1.349704,-9.37527 V 82.67655 c 0,-4.72454 0.591975,-7.898839 1.775926,-9.522901 1.18395,-1.673274 2.782283,-2.509911 4.794999,-2.509911 h 3.267704 c 1.965359,0 3.386097,0.369104 4.26222,1.107313 0.899804,0.73821 1.562811,2.066986 1.989035,3.986331 0.426225,1.919345 1.969982,5.044431 2.514597,9.37526 l 6.50711,28.057388 6.507103,-28.057388 c 0.544616,-4.330829 2.088372,-7.455915 2.514597,-9.37526 0.426224,-1.919345 1.077398,-3.248121 1.953521,-3.986331 0.899804,-0.738209 2.332383,-1.107313 4.297737,-1.107313 h 3.267698 c 2.01272,0 3.61106,0.836637 4.79501,2.509911 1.18395,1.624062 1.77592,4.798361 1.77592,9.522901 v 85.63229 c 0,4.13397 -0.4499,7.23446 -1.3497,9.30144 -0.87613,2.06699 -2.06008,3.10049 -3.55185,3.10049 -1.39706,0 -3.603828,-2.09183 -4.503632,-4.15883 -0.899804,-2.06697 -1.34971,-4.10913 -1.34971,-8.2431 v -58.30262 l -6.75934,27.1446 c -0.544616,4.47845 -1.523689,5.65912 -1.878878,7.77533 -0.3315,2.06699 -0.958992,4.49088 -1.882477,6.21338 -0.923485,1.72249 -2.202151,2.58374 -3.835999,2.58374 -1.231311,0 -2.273187,-0.56597 -3.125629,-1.69789 -0.852442,-1.08271 -2.044624,-5.66029 -2.518204,-7.38279 -0.396918,-3.51654 -1.421072,-4.11422 -1.953521,-7.49177 z"
     id="path6" />
  <path
     style="font-style:italic;font-size:104.869px;font-family:Zapfino;-inkscape-font-specification:'Zapfino, Italic';fill:#ffffff;stroke-width:0.545876"
     d="m 178.16417,137.15082 -6.75935,-27.14459 v 58.30261 c 0,4.13397 0.0793,5.64697 -0.82054,7.71394 -0.87612,2.067 -3.63574,4.68799 -5.10383,4.68799 -1.42074,0 -2.58102,-1.00889 -3.48082,-3.02666 -0.8998,-2.06699 -1.3497,-5.19208 -1.3497,-9.37527 V 82.676557 c 0,-4.72454 0.59197,-7.898839 1.77592,-9.522901 1.18395,-1.673274 2.78229,-2.509911 4.795,-2.509911 h 3.26771 c 1.96536,0 3.38609,0.369104 4.26222,1.107313 0.8998,0.73821 1.56281,2.066986 1.98903,3.986331 0.42623,1.919345 1.96998,5.044431 2.5146,9.37526 l 6.50711,28.057391 6.5071,-28.057391 c 0.54462,-4.330829 2.08837,-7.455915 2.5146,-9.37526 0.42622,-1.919345 1.07739,-3.248121 1.95352,-3.986331 0.8998,-0.738209 2.33238,-1.107313 4.29773,-1.107313 h 3.2677 c 2.01272,0 3.61106,0.836637 4.79501,2.509911 1.18395,1.624062 1.77592,4.798361 1.77592,9.522901 v 85.632283 c 0,4.13397 -0.4499,7.23446 -1.3497,9.30144 -0.87613,2.06699 -2.06008,3.10049 -3.55185,3.10049 -1.39706,0 -3.60383,-2.09183 -4.50363,-4.15883 -0.8998,-2.06697 -1.34971,-4.10913 -1.34971,-8.2431 v -58.30261 l -6.75934,27.14459 c -0.54462,4.47845 -1.52369,5.65912 -1.87888,7.77533 -0.3315,2.06699 -0.95899,4.49088 -1.88247,6.21338 -0.92349,1.72249 -2.20216,2.58374 -3.836,2.58374 -1.23131,0 -2.27319,-0.56597 -3.12563,-1.69789 -0.85244,-1.08271 -2.04462,-5.66029 -2.5182,-7.38279 -0.39692,-3.51654 -1.42108,-4.11422 -1.95352,-7.49177 z"
     id="path6-3" />
  <path
     style="font-style:normal;font-weight:bold;font-size:92.1651px;font-family:'Arial Rounded MT Bold';-inkscape-font-specification:'Arial Rounded MT Bold,  Bold';fill:#ffffff;stroke-width:0.545876"
     d="m 147.93691,98.610877 h -20.88335 v 23.356163 h 19.22891 q 2.12268,0 3.1528,2.01122 1.06134,1.94635 1.06134,5.19026 0,3.24391 -1.03012,5.32001 -1.03013,2.01123 -3.18402,2.01123 h -19.22891 v 27.05422 h 21.60131 q 2.18511,0 3.27766,2.14098 1.12377,2.0761 1.12377,5.57953 0,3.37366 -1.12377,5.51465 -1.09255,2.0761 -3.27766,2.0761 h -25.19113 q -3.02793,0 -4.37021,-2.78976 -1.31106,-2.78977 -1.31106,-9.01808 V 95.561601 q 0,-4.152206 0.5931,-6.747335 0.5931,-2.660007 1.84173,-3.827816 1.27984,-1.232685 3.24644,-1.232685 h 24.47317 q 2.21632,0 3.27766,2.076102 1.09255,2.011226 1.09255,5.320015 0,3.373667 -1.09255,5.449771 -1.06134,2.011224 -3.27766,2.011224 z"
     id="path7" />
</svg>
