<svg viewBox="0 0 128 128" fill="#f97316" xmlns="http://www.w3.org/2000/svg"><path d="M34.592 13c-3.346-.003-6.526.365-9.14 1.06-1.251.303-2.159 1.69-2.168 3.31-.104 24.424-.212 48.884-.323 73.38-.105 2.162 1.246 3.887 2.914 3.68 6.482-.709 15.348.105 21.158 2.538 4.691 1.948 9.063 4.973 12.9 8.927-6.073-2.597-12.446-3.873-18.852-3.776-7.667.155-15.297 1.39-22.752 3.681V28.696h-2.665c-1.47 0-2.664 1.52-2.664 3.397v78.148c-.009 1.895 1.201 3.432 2.69 3.416a2.135 2.135 0 00.83-.18c8.01-2.815 16.262-4.36 24.57-4.6 7.358-.12 14.65 1.777 21.382 5.563.922.747 2.1.747 3.022 0 6.733-3.785 14.025-5.682 21.382-5.564 8.327.228 16.599 1.767 24.629 4.579a2.1 2.1 0 00.83.181c1.47 0 2.665-1.52 2.665-3.395V32.093c0-1.876-1.194-3.396-2.666-3.396h-2.664V105.8c-7.454-2.291-15.085-3.525-22.752-3.681-5.975-.084-11.924 1.023-17.63 3.278 4.057-3.6 8.456-6.535 13.09-8.735 6.272-2.607 12.922-3.398 19.465-2.316a2.323 2.323 0 00.614.094c1.475.012 2.678-1.505 2.681-3.384V17.38c-.013-1.68-.992-3.095-2.299-3.32-7.661-1.46-18.353-.635-25.4 2.792-5.169 2.362-9.753 6.432-13.282 11.792-3.42-5.63-8.025-9.904-13.281-12.322-4.664-2.28-10.706-3.316-16.284-3.322zm-1.242 6.776c5.168-.123 11.276.764 15.634 2.883 4.74 2.312 9.068 5.89 11.88 11.455v-.041c2.048 4.102 4.403 3.642 6.108-.423l.117-.041c2.992-5.562 7.174-8.167 12.176-10.4 5.536-2.677 14.368-3.544 20.527-2.804v66.833c-6.495-.524-13.01.506-19.208 3.035-4.903 2.316-13.878 9.16-13.878 9.16v-.031c-1.954 1.894-3.522 1.56-5.842-1.13l-.116-.053c-3.71-3.31-7.783-5.911-12.096-7.692-5.67-2.358-14.186-3.364-20.354-3.078l.3-67.224c1.413-.256 3.03-.409 4.752-.45z"/><path d="M69.026 47.872H60.64v9.378h7.721q.853 0 1.267.807.426.783.426 2.086 0 1.302-.413 2.136-.414.807-1.279.807H60.64v10.865h8.674q.878 0 1.317.86.451.835.451 2.241 0 1.355-.451 2.214-.439.834-1.317.834H59.2q-1.216 0-1.755-1.12-.526-1.121-.526-3.622v-28.71q0-1.669.237-2.71.239-1.068.74-1.538.514-.494 1.304-.494h9.828q.888 0 1.316.834.438.807.438 2.136 0 1.355-.438 2.188-.427.807-1.317.807zM81.677 62.607l-2.715-10.901v23.413c0 1.66.033 2.268-.329 3.098-.352.83-1.46 1.882-2.049 1.882-.571 0-1.036-.405-1.398-1.215-.362-.83-.542-2.085-.542-3.765V40.732c0-1.897.237-3.173.713-3.824.475-.673 1.117-1.008 1.926-1.008h1.312c.789 0 1.36.149 1.712.444.36.297.627.83.798 1.601.172.77.791 2.026 1.01 3.766l2.613 11.267 2.613-11.267c.218-1.74.838-2.995 1.01-3.766.17-.77.433-1.304.785-1.6.36-.296.935-.444 1.725-.444h1.312c.809 0 1.45.335 1.926 1.006.475.653.713 1.928.713 3.825V75.12c0 1.66-.181 2.905-.542 3.735-.352.83-.828 1.245-1.426 1.245-.562 0-1.447-.84-1.809-1.67-.362-.83-.542-1.65-.542-3.31V51.706l-2.715 10.9c-.218 1.799-.612 2.274-.754 3.123-.133.83-.385 1.804-.755 2.496-.372.691-.885 1.037-1.541 1.037-.495 0-.913-.227-1.255-.682-.343-.435-.822-2.273-1.011-2.965-.16-1.411-.571-1.652-.785-3.008zM40.22 62.607l-2.714-10.901v23.413c0 1.66.032 2.268-.329 3.098-.352.83-1.46 1.882-2.05 1.882-.57 0-1.036-.405-1.397-1.215-.362-.83-.542-2.085-.542-3.765V40.732c0-1.897.237-3.173.713-3.824.474-.673 1.117-1.008 1.925-1.008h1.312c.79 0 1.36.149 1.712.444.362.297.627.83.799 1.601.172.77.791 2.026 1.01 3.766l2.613 11.267 2.613-11.267c.218-1.74.838-2.995 1.01-3.766.17-.77.432-1.304.784-1.6.362-.296.936-.444 1.726-.444h1.312c.809 0 1.45.335 1.926 1.006.475.653.712 1.928.712 3.825V75.12c0 1.66-.18 2.905-.542 3.735-.352.83-.827 1.245-1.426 1.245-.561 0-1.447-.84-1.808-1.67-.362-.83-.542-1.65-.542-3.31V51.706l-2.715 10.9c-.218 1.799-.612 2.274-.754 3.123-.133.83-.385 1.804-.756 2.496-.37.691-.884 1.037-1.541 1.037-.494 0-.912-.227-1.254-.682-.343-.435-.822-2.273-1.012-2.965-.16-1.411-.57-1.652-.784-3.008z"/></svg>