<svg viewBox="0 0 128 128" xmlns="http://www.w3.org/2000/svg" style="fill:#EA580C"><path d="M31.565 7.75c-3.691-.003-7.198.403-10.082 1.169-1.379.334-2.38 1.863-2.39 3.65-.115 26.939-.234 53.916-.357 80.933-.115 2.385 1.375 4.288 3.214 4.06 7.15-.782 16.928.116 23.337 2.799 5.174 2.148 9.996 5.485 14.227 9.846-6.698-2.864-13.727-4.272-20.792-4.165-8.456.171-16.872 1.533-25.094 4.06v-85.04h-2.94c-1.622 0-2.938 1.677-2.938 3.746V115c-.01 2.09 1.325 3.785 2.966 3.768a2.355 2.355 0 00.916-.199c8.835-3.104 17.937-4.808 27.1-5.074 8.115-.131 16.158 1.961 23.583 6.136 1.017.824 2.316.824 3.333 0 7.426-4.174 15.469-6.266 23.584-6.136 9.184.251 18.307 1.948 27.164 5.05.295.13.604.196.915.2 1.623 0 2.94-1.677 2.94-3.745V28.808c0-2.069-1.317-3.745-2.94-3.745h-2.939v85.039c-8.221-2.527-16.638-3.888-25.094-4.06-6.59-.093-13.152 1.128-19.446 3.616 4.476-3.97 9.327-7.208 14.438-9.635 6.918-2.875 14.253-3.747 21.47-2.554a2.562 2.562 0 00.677.104c1.626.013 2.953-1.66 2.957-3.733V12.581c-.015-1.854-1.094-3.414-2.536-3.662-8.45-1.61-20.243-.7-28.016 3.08-5.7 2.605-10.756 7.093-14.648 13.005-3.772-6.21-8.852-10.923-14.649-13.59C44.381 8.9 37.717 7.757 31.565 7.75zm-1.37 7.473c5.7-.135 12.437.843 17.243 3.18 5.229 2.55 10.002 6.496 13.104 12.634v-.045c2.258 4.524 4.856 4.017 6.736-.467l.13-.045c3.3-6.134 7.912-9.007 13.429-11.471 6.106-2.952 15.847-3.908 22.64-3.092v73.712c-7.163-.577-14.349.559-21.185 3.348-5.408 2.554-15.307 10.102-15.307 10.102v-.034c-2.155 2.089-3.885 1.72-6.443-1.246l-.128-.058c-4.092-3.652-8.585-6.52-13.342-8.484-6.253-2.601-15.646-3.71-22.449-3.395l.33-74.143c1.559-.283 3.343-.451 5.242-.496z"/><path d="M37.187 64.746l-2.994-12.023v25.823c0 1.831.035 2.502-.363 3.417-.388.916-1.61 2.076-2.26 2.076-.63 0-1.144-.447-1.542-1.34-.399-.916-.598-2.3-.598-4.153V40.62c0-2.093.262-3.5.787-4.218.523-.742 1.232-1.112 2.123-1.112h1.447c.871 0 1.5.164 1.888.49.399.327.692.916.881 1.766.19.85.873 2.234 1.114 4.153l2.882 12.427 2.882-12.427c.241-1.919.925-3.303 1.114-4.153.189-.85.477-1.439.865-1.765.399-.327 1.033-.49 1.904-.49h1.447c.892 0 1.599.37 2.124 1.11.524.72.786 2.126.786 4.219v37.927c0 1.831-.199 3.204-.598 4.12-.388.915-.912 1.373-1.573 1.373-.619 0-1.596-.926-1.994-1.842-.399-.915-.598-1.82-.598-3.65V52.722l-2.994 12.023c-.241 1.983-.675 2.507-.832 3.444-.147.915-.425 1.989-.834 2.752-.409.763-.975 1.144-1.7 1.144-.544 0-1.006-.25-1.383-.752-.378-.48-.906-2.507-1.116-3.27-.176-1.557-.629-1.822-.865-3.318zm45.724 0l-2.994-12.023v25.823c0 1.831.036 2.502-.363 3.417-.388.916-1.61 2.076-2.26 2.076-.63 0-1.143-.447-1.542-1.34-.399-.916-.598-2.3-.598-4.153V40.62c0-2.093.262-3.5.787-4.218.524-.742 1.232-1.112 2.124-1.112h1.447c.87 0 1.5.164 1.888.49.398.327.692.916.88 1.766.19.85.873 2.234 1.114 4.153l2.883 12.427 2.882-12.427c.24-1.919.924-3.303 1.113-4.153.189-.85.478-1.439.866-1.765.398-.327 1.032-.49 1.903-.49h1.447c.892 0 1.6.37 2.124 1.11.524.72.787 2.126.787 4.219v37.927c0 1.831-.2 3.204-.598 4.12-.388.915-.913 1.373-1.573 1.373-.62 0-1.596-.926-1.995-1.842-.399-.915-.598-1.82-.598-3.65V52.722l-2.994 12.023c-.241 1.983-.675 2.507-.832 3.444-.147.915-.425 1.989-.833 2.752-.41.763-.976 1.144-1.7 1.144-.545 0-1.007-.25-1.384-.752-.378-.48-.906-2.507-1.115-3.27-.176-1.557-.63-1.822-.866-3.318z"/><path style="-inkscape-font-specification:'Arial Rounded MT Bold, Bold'" d="M69.523 47.676h-9.249V58.02h8.516q.94 0 1.397.89.47.863.47 2.3 0 1.436-.456 2.356-.456.89-1.41.89h-8.517V76.44h9.567q.968 0 1.452.949.498.92.498 2.471 0 1.494-.498 2.442-.484.92-1.452.92H58.684q-1.341 0-1.936-1.236-.58-1.236-.58-3.994V46.326q0-1.84.262-2.989.263-1.178.816-1.696.567-.545 1.438-.545h10.84q.98 0 1.451.92.484.89.484 2.356 0 1.494-.484 2.413-.47.89-1.452.89z"/></svg>