<?xml version="1.0" encoding="UTF-8" standalone="no"?>
<svg
   enable-background="new -27 24 100 100"
   id="unknown"
   version="1.1"
   viewBox="-27 24 50 50"
   xml:space="preserve"
   width="50"
   height="50"
   xmlns:xlink="http://www.w3.org/1999/xlink"
   xmlns="http://www.w3.org/2000/svg"
   xmlns:svg="http://www.w3.org/2000/svg"
   xmlns:rdf="http://www.w3.org/1999/02/22-rdf-syntax-ns#"
   xmlns:cc="http://creativecommons.org/ns#"
   xmlns:dc="http://purl.org/dc/elements/1.1/"><metadata
     id="metadata25"><rdf:RDF><cc:Work
         rdf:about=""><dc:format>image/svg+xml</dc:format><dc:type
           rdf:resource="http://purl.org/dc/dcmitype/StillImage" /></cc:Work></rdf:RDF></metadata><defs
     id="defs23" /><g
     id="g13"
     transform="matrix(0.5,0,0,0.5,-13.5,7.9999995)"
     style="fill:#ac9d93"><defs
       id="defs5"><path
         d="m 36,95.9 c 0,4 4.7,5.2 7.1,5.8 7.6,2 22.8,5.9 22.8,5.9 3.2,1.1 5.7,3.5 7.1,6.6 V 124 H -27 v -9.8 c 1.3,-3.1 3.9,-5.5 7.1,-6.6 0,0 15.2,-3.9 22.8,-5.9 2.4,-0.6 7.1,-1.8 7.1,-5.8 0,-4 0,-10.9 0,-10.9 h 26 c 0,0 0,6.9 0,10.9 z"
         id="shoulders" /></defs><use
       overflow="visible"
       xlink:href="#shoulders"
       id="use7"
       style="overflow:visible;fill:#ac9d93"
       x="0"
       y="0"
       width="100%"
       height="100%" /><clipPath
       id="shoulders_1_"><use
         overflow="visible"
         xlink:href="#shoulders"
         id="use9"
         style="overflow:visible"
         x="0"
         y="0"
         width="100%"
         height="100%" /></clipPath><path
       clip-path="url(#shoulders_1_)"
       d="m 23.2,35 c 0.1,0 0.1,0 0.2,0 0,0 0,0 0,0 3.3,0 8.2,0.2 11.4,2 3.3,1.9 7.3,5.6 8.5,12.1 2.4,13.7 -2.1,35.4 -6.3,42.4 -4,6.7 -9.8,9.2 -13.5,9.4 0,0 -0.1,0 -0.1,0 -0.1,0 -0.1,0 -0.2,0 -0.1,0 -0.1,0 -0.2,0 0,0 -0.1,0 -0.1,0 C 19.2,100.7 13.4,98.2 9.4,91.5 5.2,84.5 0.7,62.8 3.1,49.1 4.3,42.6 8.3,38.9 11.6,37 c 3.2,-1.8 8.1,-2 11.4,-2 0,0 0,0 0,0 0.1,0 0.1,0 0.2,0 z"
       id="head-shadow"
       style="fill:#ac9d93" /></g><path
     style="fill:#ff9955;stroke-width:0.5"
     id="head"
     d="m -2.199999,27.999999 c 9.55,0 10.35,6.9 10.4,7.55 0.55,5.950001 -1.5,14.05 -3.4,16.85 -2,2.950001 -4.9,4.05 -6.75,4.15 -0.1,0 -0.1,0 -0.15,0 -0.05,0 -0.05,0 -0.1,0 -1.9,-0.15 -4.8000005,-1.25 -6.8000005,-4.199999 C -10.9,49.549999 -12.95,41.45 -12.4,35.45 -12.35,34.849999 -11.75,28 -2.199999,27.999999 Z" /></svg>
