<?xml version="1.0" encoding="UTF-8" standalone="no"?>
<!-- Created with Inkscape (http://www.inkscape.org/) -->

<svg
   width="128"
   height="128"
   viewBox="0 0 128 128"
   version="1.1"
   id="svg8"
   sodipodi:docname="mem.svg"
   inkscape:version="1.2.2 (b0a8486, 2022-12-01)"
   xmlns:inkscape="http://www.inkscape.org/namespaces/inkscape"
   xmlns:sodipodi="http://sodipodi.sourceforge.net/DTD/sodipodi-0.dtd"
   xmlns="http://www.w3.org/2000/svg"
   xmlns:svg="http://www.w3.org/2000/svg"
   xmlns:rdf="http://www.w3.org/1999/02/22-rdf-syntax-ns#"
   xmlns:cc="http://creativecommons.org/ns#"
   xmlns:dc="http://purl.org/dc/elements/1.1/">
  <sodipodi:namedview
     id="namedview15"
     pagecolor="#ffffff"
     bordercolor="#000000"
     borderopacity="0.25"
     inkscape:showpageshadow="2"
     inkscape:pageopacity="0.0"
     inkscape:pagecheckerboard="0"
     inkscape:deskcolor="#d1d1d1"
     showgrid="false"
     inkscape:zoom="1.84375"
     inkscape:cx="64.271186"
     inkscape:cy="64.271186"
     inkscape:window-width="1920"
     inkscape:window-height="1027"
     inkscape:window-x="0"
     inkscape:window-y="385"
     inkscape:window-maximized="1"
     inkscape:current-layer="layer1" />
  <defs
     id="defs2" />
  <metadata
     id="metadata5">
    <rdf:RDF>
      <cc:Work
         rdf:about="">
        <dc:format>image/svg+xml</dc:format>
        <dc:type
           rdf:resource="http://purl.org/dc/dcmitype/StillImage" />
      </cc:Work>
    </rdf:RDF>
  </metadata>
  <g
     id="layer1"
     transform="translate(0,-26.06665)">
    <path
       d="m 4,30.06665 v 27.195468 h 16.451613 c 4.774193,0 11.935484,-2.37961 16.64516,-3.909353 v 0.679884 L 25.612902,64.230952 8.0645143,81.39809 v 16.657219 l 17.5483877,16.997171 11.483871,10.53823 v 0.67989 c -4.709676,-1.52973 -11.870967,-3.90933 -16.64516,-3.90933 H 4 v 27.70538 H 52 V 117.09214 L 31.290322,97.715368 c -2.774193,-2.379604 -5.806451,-4.419264 -8.774193,-6.968841 v -0.849852 c 2.967742,-2.379605 6,-4.419264 8.774193,-6.968844 L 52,62.871177 V 30.06665 Z"
       id="path280"
       style="fill:#808080;stroke-width:3.27243" />
    <path
       d="M 54,150.06664 H 74 V 125.87308 H 61.412009 V 100.3892 H 71.722567 V 76.195642 H 61.412009 V 53.937567 H 73.544513 V 30.06659 H 54 Z"
       id="path282"
       style="fill:#808080;stroke-width:2.55382" />
    <path
       d="m 124,150.06664 v -27.19547 h -16.45162 c -4.77418,0 -11.935475,2.37961 -16.645155,3.90936 v -0.6799 L 102.3871,115.90234 119.93548,98.735205 V 82.077955 L 102.3871,65.080775 90.903225,54.542592 v -0.679896 c 4.70968,1.529711 11.870975,3.909335 16.645155,3.909335 H 124 V 30.06665 H 76 v 32.974509 l 20.709677,19.376736 c 2.774189,2.37965 5.806443,4.41929 8.774193,6.96885 v 0.84987 c -2.96775,2.3796 -6.000004,4.41926 -8.774193,6.96883 L 76,117.2621 v 32.80454 z"
       id="path284"
       style="fill:#808080;stroke-width:3.27241" />
  </g>
</svg>
