<svg xmlns="http://www.w3.org/2000/svg" viewBox="0 0 100 100"><path d="M29,40.1l-4.6-3.7c-2.2,4.1-3.5,8.8-3.5,13.9c0,6.9,2.4,13.3,6.5,18.3l-12.2,0.4L17.3,81c-7.5-8-12.2-18.8-12.2-30.7  c0-8.7,2.5-16.9,6.8-23.8l-4.7-3.7l21-3.6L29,40.1z M71.1,60.4l4.6,3.7c2.2-4.1,3.5-8.8,3.5-13.9c0-6.9-2.4-13.3-6.5-18.3L85,31.5  l-2.1-11.9c7.5,8,12.2,18.8,12.2,30.7c0,8.7-2.5,16.9-6.8,23.8l4.7,3.7l-21,3.6L71.1,60.4z M60.2,29.2l3.7-4.6  c-4.1-2.2-8.8-3.5-13.9-3.5c-6.9,0-13.3,2.4-18.3,6.5l-0.4-12.2l-11.9,2.1c8-7.5,18.8-12.2,30.7-12.2c8.7,0,16.9,2.5,23.8,6.8  l3.7-4.7l3.6,21L60.2,29.2z M39.9,71.3L36.2,76c4.1,2.2,8.8,3.5,13.9,3.5c6.9,0,13.3-2.4,18.3-6.5l0.4,12.2l11.9-2.1  c-8,7.5-18.8,12.2-30.7,12.2c-8.7,0-16.9-2.5-23.8-6.8l-3.7,4.7l-3.6-21L39.9,71.3z"/></svg>