<svg viewBox="0 0 128 128" xmlns="http://www.w3.org/2000/svg"><path d="M52.667 95.333l-4.111 5.223A32.485 32.485 0 0064 104.444c7.667 0 14.778-2.666 20.333-7.222l.445 13.556L98 108.444C89.111 116.778 77.111 122 63.889 122a49.972 49.972 0 01-26.445-7.556l-4.11 5.223-4-23.334zM75.222 32.556l4.111-5.112a32.485 32.485 0 00-15.444-3.888c-7.667 0-14.778 2.666-20.333 7.222l-.445-13.556-13.222 2.334C38.778 11.222 50.778 6 64 6a49.972 49.972 0 0126.444 7.556l4.112-5.223 4 23.334zM95.333 75.222l5.111 4.111a32.485 32.485 0 003.89-15.444c0-7.667-2.667-14.778-7.223-20.333l13.667-.445-2.334-13.222C116.778 38.778 122 50.778 122 64a49.972 49.972 0 01-7.556 26.444l5.223 4.112-23.334 4zM32.556 52.667l-5.112-4.111A32.485 32.485 0 0023.556 64c0 7.667 2.666 14.778 7.222 20.333l-13.556.445 2.334 13.333C11.222 89.222 6 77.222 6 64a49.972 49.972 0 017.556-26.444l-5.223-4.112 23.334-4z"/></svg>