<?xml version="1.0" encoding="UTF-8" standalone="no"?>
<!-- Uploaded to: SVG Repo, www.svgrepo.com, Generator: SVG Repo Mixer Tools -->

<svg
   height="128"
   width="128"
   version="1.1"
   id="Capa_1"
   viewBox="0 0 128 128"
   xml:space="preserve"
   xmlns="http://www.w3.org/2000/svg"
   xmlns:svg="http://www.w3.org/2000/svg"><defs
   id="defs7">
	
	
	
	
	
	
	
</defs>
<path
   id="path7"
   style="fill:#010002;stroke-width:0.345944"
   d="m 122.1047,52.674247 c 1.04543,1.15326 1.8953,0.763881 1.8953,-0.8644 V 9.6606997 c 0,-3.0177815 -2.62711,-5.6606991 -5.35348,-5.6606991 H 80.563999 c -1.479768,0 -1.833633,0.9351639 -0.78556,2.0884238 L 93.32424,21.005323 87.799265,27.058304 62.174241,55.281602 48.620525,40.370872 c -1.048073,-1.15326 -2.742535,-1.150356 -3.790608,0 L 7.1391902,81.874078 c -4.1873455,4.610499 -4.1847072,12.082375 0.00264,16.689609 l 0.2628427,0.292125 c 4.1873461,4.607598 10.9777251,4.607598 15.1621021,-0.0029 L 46.722913,72.257893 60.276628,87.15701 c 1.048073,1.150356 2.745173,1.150356 3.793246,0 L 108.74951,37.984517 Z M 20.49701,113.25668 16.8835,117.23902 c -1.045435,1.15326 -1.892666,3.13282 -1.892666,4.4247 V 124 h 12.489483 v -15.48954 c 0,-1.62828 -0.847231,-2.01475 -1.895304,-0.86149 z M 50.963684,89.062538 c -1.048073,-1.150357 -1.897942,-0.763881 -1.897942,0.8644 v 34.069792 h 11.18945 v -21.7842 c 0,-1.62828 -0.804358,-3.831739 -1.798676,-4.920042 L 56.657841,95.322003 Z M 67.67514,95.3191 c 0,0 -0.498642,0.55159 -1.11502,1.230192 -0.61374,0.678602 -1.112382,2.55147 -1.112382,4.179748 v 23.26769 h 11.18945 V 88.416596 c 0,-1.628281 -0.84987,-2.017661 -1.897943,-0.864401 z M 100.1067,59.609048 c -1.048069,1.150357 -1.897939,3.403895 -1.897939,5.032176 V 123.99637 H 108.61265 V 53.214225 c 0,-1.628281 -0.84987,-2.01766 -1.89794,-0.8644 z M 83.727346,77.658764 c -1.045435,1.15326 -1.895304,3.407161 -1.895304,5.038345 v 41.302531 h 11.18945 V 70.369783 c 0,-1.628281 -0.847231,-2.014757 -1.895304,-0.861497 z M 34.57905,97.752631 c -1.048073,1.15326 -1.895304,3.406799 -1.895304,5.035079 v 21.20866 h 11.18945 V 90.475263 c 0,-1.628281 -0.847231,-2.017661 -1.895304,-0.864401 z" />
</svg>
