<svg xmlns="http://www.w3.org/2000/svg" viewBox="0 0 128 128">
   <path style="fill:#000000;stroke-width:0.269819" d="m 63.990961,47.795914 c 10.134397,0 18.384649,-8.250521 18.384649,-18.384648 0,-10.134127 -8.250522,-18.36738 -18.384649,-18.36738 -10.134127,0 -18.384648,8.250521 -18.384648,18.384648 0,10.134127 8.250252,18.36738 18.384648,18.36738 z m 0,-30.873754 c 6.907363,0 12.506645,5.616549 12.506645,12.506644 0,6.890095 -5.61655,12.506644 -12.506645,12.506644 -6.890094,0 -12.506644,-5.616549 -12.506644,-12.506644 0,-6.890095 5.599281,-12.506644 12.506644,-12.506644 z"/>
   <path style="fill:#000000;stroke-width:0.269819" d="m 108.10392,71.622809 h -2.25002 l 1.06389,-14.739125 c 0.0872,-1.098973 -0.45356,-2.1456 -1.41277,-2.738662 C 93.260103,46.71448 77.195357,47.63888 63.973693,56.342697 50.769567,47.656148 34.687283,46.731749 22.442363,54.145022 c -0.941938,0.558255 -1.482655,1.622151 -1.412772,2.738662 l 1.063896,14.739125 H 19.878274 C 16.633972,71.622809 14,74.274049 14,77.501083 v 9.174921 c 0,3.244302 2.651241,5.878274 5.878274,5.878274 h 3.732675 c 0.523178,7.221432 1.046627,14.407792 1.569806,21.629222 0.139496,2.19767 2.965309,3.8549 5.006219,1.88387 9.157383,-9.10503 22.483737,-11.77381 32.426292,-6.47133 1.081434,0.43603 1.988565,0.38368 2.773468,0 9.942286,-5.32002 23.286178,-2.65124 32.426292,6.47133 2.023372,2.09326 5.023484,0.0872 5.006224,-1.88387 0.50591,-7.22143 1.04662,-14.40779 1.5698,-21.629222 h 3.73268 c 3.2443,0 5.87827,-2.65124 5.87827,-5.878274 v -9.174921 c -0.0181,-3.227034 -2.63424,-5.878274 -5.89608,-5.878274 z M 28.634166,82.978136 c 0,2.04091 -1.674495,3.715406 -3.715405,3.715406 h -5.040757 v -9.174921 h 5.058295 c 2.04091,0 3.715406,1.674496 3.715406,3.715406 v 1.744379 z M 61.04292,102.54891 c -9.802789,-3.27938 -21.245268,-1.20366 -30.420189,5.44225 -0.40122,-5.47706 -0.784903,-10.97165 -1.186123,-16.448703 v -0.10469 c 3.017654,-1.604612 5.093371,-4.796839 5.093371,-8.4599 v -1.744379 c 0,-4.18624 -2.703586,-7.76215 -6.471336,-9.052693 L 27.06436,58.331262 c 10.169204,-5.320019 23.181488,-4.133895 33.97856,3.122344 z m 36.316001,5.44225 C 88.184,101.34552 76.741522,99.2698 66.938732,102.54891 V 85.036315 h 5.791123 c 1.622151,0 2.947771,-1.308082 2.947771,-2.947771 0,-1.63969 -1.308082,-2.947772 -2.947771,-2.947772 h -5.791123 v -5.320018 h 12.907596 c 1.622151,0 2.947771,-1.308082 2.947771,-2.947771 0,-1.622151 -1.308352,-2.947772 -2.947771,-2.947772 H 66.956001 v -6.506142 c 10.81461,-7.256239 23.826895,-8.442363 33.978559,-3.104806 l -0.994282,13.849533 c -3.750212,1.290814 -6.471335,4.866453 -6.471335,9.052693 v 1.744379 c 0,3.663061 2.058178,6.83748 5.09337,8.459901 2.7e-4,0.01727 -0.819439,11.232831 -1.203392,16.570391 z m 5.686429,-21.315156 c -2.04091,0 -3.715402,-1.674496 -3.715402,-3.715406 v -1.744379 c 0,-2.04091 1.674492,-3.715406 3.715402,-3.715406 h 5.0583 v 9.174921 h -5.0583 z"/>
</svg>