<svg viewBox="0 0 128 128" xmlns="http://www.w3.org/2000/svg"><path d="M0 0h128v128H0z" fill="#f97316"/><path fill="#fff" d="M56.08 23.162c-3.234 4.283-.74 6.395-.498 10.516-1.113 4.644-6.808 2.906-10.905 3.561a239.548 239.548 0 00-15.814 1.785c-4.164.71-5.721 1.602-4.41 6.012 1.89 4.148 5.455 9.317 11.226 6.015 8.957-1.544 18.175-1.772 27.295-2.14 6.27.06 3.687 2.696 1.666 6.564-2.644 1.773-5.233 4.769-8.471.873-1.628-4.87-13.1-4.012-11.114.388 3.235 1.493 11.608 8.134 6.49 10.464-4.289 2.086-8.534 5.983-14.107 4.879-1.97-.844-7.506-6.452-6.65.638.572 6.134 6.642 8.612 12.18 6.251 5.867-1.184 10.165-4.834 14.246-8.173 5.096-2.358 7.288 3.202 10.405 5.384 3.648 3.356 7.409 6.646 11.592 9.55 1.79 4.852 1.134 10.036 2.368 14.94 1.723 4.303 10.542 8.065 13.47 2.629 4.367-3.247.15-7.854 2.07-11.234 4.23-1.64 7.622-6.675 3.748-9.798-3.75-2.264-9.785-3.34-10.234-7.92-1.575-4.203-3.065-8.444-4.705-12.64-1.39-3.847-4.764-6.756-8.033-9.569-3.002-2.449-.041-3.902 3.095-2.996 5.815.166 11.685.001 17.392-1.006 3.8-2.43 8.312-9.185 3.596-12.047-4.429-1.472-9.395-1.436-14.108-1.483-5.361.246-10.767.418-16.101.677-5.478.134-7.054-1.884-4.784-6.281 1.282-4.11-5.638-9.363-10.905-5.839zm13.798 34.624c2.14 4.327 4.2 8.706 5.493 13.268-2.81-2.698-8.382-3.525-9.323-7.382.397-2.23 2.926-3.773 3.83-5.886z"/></svg>