<svg viewBox="0 0 128 128" xmlns="http://www.w3.org/2000/svg"><path fill="#f97316" paint-order="stroke fill markers" d="M0 0h128v128H0z"/><path fill="#fff" d="M47.447 24.078v10.114h-24.04v7.844h9.014c3.298 9.748 8.283 17.37 13.78 24.26-6.083 5.277-13.56 10.04-24.701 13.925l4.765 7.915c10.188-4.104 18.91-9.308 25.945-15.465 6.817 5.937 16.784 11.509 25.653 14.807l2.716-4.879c.924 2.018 1.86 4.03 2.821 6.028.819 1.735 1.68 3.624 2.583 5.665.989 1.981 1.922 3.88 2.797 5.696a511.782 511.782 0 011.608 3.43c1.56 1.339 4.856-.313 6.14-1.21a132.79 132.79 0 002.525-2.679c.972-1.165 1.9-2.3 2.785-3.406.97-1.165 1.8-2.17 2.486-3.015.77-.903 1.298-1.515 1.584-1.836.571-.643.73-1.056.474-1.242-.17-.246-.54-.048-1.11.594-.572.643-1.101 1.254-1.587 1.837-.542.5-1.026.9-1.454 1.2-.257.18-.628.379-1.112.596-.485.217-1.053.312-1.707.284-.71-.11-1.492-.415-2.343-.913-.823-.64-1.716-1.656-2.678-3.048-.538-.96-1.442-2.634-2.713-5.025a276.86 276.86 0 01-3.98-8.513 1162.251 1162.251 0 00-4.576-9.92c-1.552-3.531-2.977-6.786-4.275-9.766-1.355-3.06-2.483-5.613-3.386-7.653-.874-2.183-1.383-3.467-1.524-3.855-.478-1.003-.956-2.285-1.432-3.812h8.217v-7.844H56.169V24.078zm-5.865 17.958H62.62c-2.785 8.136-6.304 13.851-10.262 18.322-4.031-4.91-8.136-10.7-10.775-18.322zm26.134 10.442c3.467 8.372 6.911 16.762 10.573 25.04-6.304-2.367-13.82-5.79-19.921-11.002 3.591-4.091 6.729-8.75 9.348-14.038z"/></svg>